<svg width="25" height="25" viewBox="0 0 25 25" fill="none" xmlns="http://www.w3.org/2000/svg">
<path fill-rule="evenodd" clip-rule="evenodd" d="M12.9047 2.08325C18.4341 2.08325 22.9167 6.46679 22.9167 11.8741C22.9167 17.2815 18.4341 21.665 12.9047 21.665C10.5397 21.665 8.36629 20.8632 6.65317 19.5223L3.39891 22.6965L3.31233 22.7694C3.01019 22.988 2.58186 22.9631 2.30847 22.6951C2.00774 22.4002 2.00838 21.9228 2.30989 21.6287L5.52588 18.4919C3.8907 16.7493 2.89263 14.4257 2.89263 11.8741C2.89263 6.46679 7.37516 2.08325 12.9047 2.08325ZM12.9046 3.59133C8.22685 3.59133 4.43475 7.29969 4.43475 11.8742C4.43475 16.4487 8.22685 20.157 12.9046 20.157C17.5824 20.157 21.3745 16.4487 21.3745 11.8742C21.3745 7.29969 17.5824 3.59133 12.9046 3.59133Z" fill="#00BDE7"/>
<path d="M6.65317 19.5223L6.30405 19.1644L6.61704 18.8591L6.96134 19.1286L6.65317 19.5223ZM3.39891 22.6965L3.74803 23.0544L3.73494 23.0672L3.72095 23.0789L3.39891 22.6965ZM3.31233 22.7694L3.63438 23.1518L3.62033 23.1637L3.60545 23.1744L3.31233 22.7694ZM2.30847 22.6951L1.95842 23.0521L2.30847 22.6951ZM2.30989 21.6287L1.96077 21.2708L2.30989 21.6287ZM5.52588 18.4919L5.89049 18.1498L6.22607 18.5074L5.875 18.8499L5.52588 18.4919ZM22.4167 11.8741C22.4167 6.7534 18.1686 2.58325 12.9047 2.58325V1.58325C18.6997 1.58325 23.4167 6.18017 23.4167 11.8741H22.4167ZM12.9047 21.165C18.1686 21.165 22.4167 16.9949 22.4167 11.8741H23.4167C23.4167 17.5681 18.6997 22.165 12.9047 22.165V21.165ZM6.96134 19.1286C8.58884 20.4024 10.6544 21.165 12.9047 21.165V22.165C10.4251 22.165 8.14375 21.324 6.34499 19.9161L6.96134 19.1286ZM3.04979 22.3385L6.30405 19.1644L7.00228 19.8803L3.74803 23.0544L3.04979 22.3385ZM2.99029 22.3869L3.07687 22.314L3.72095 23.0789L3.63438 23.1518L2.99029 22.3869ZM2.65852 22.338C2.75451 22.4322 2.91066 22.4428 3.01921 22.3643L3.60545 23.1744C3.10971 23.5332 2.40921 23.4941 1.95842 23.0521L2.65852 22.338ZM2.659 21.9866C2.55828 22.0849 2.55811 22.2396 2.65852 22.338L1.95842 23.0521C1.45737 22.5608 1.45847 21.7607 1.96077 21.2708L2.659 21.9866ZM5.875 18.8499L2.659 21.9866L1.96077 21.2708L5.17676 18.134L5.875 18.8499ZM3.39263 11.8741C3.39263 14.2922 4.33783 16.4951 5.89049 18.1498L5.16126 18.8341C3.44356 17.0035 2.39263 14.5592 2.39263 11.8741H3.39263ZM12.9047 2.58325C7.64072 2.58325 3.39263 6.7534 3.39263 11.8741H2.39263C2.39263 6.18017 7.10961 1.58325 12.9047 1.58325V2.58325ZM3.93475 11.8742C3.93475 7.01308 7.9613 3.09133 12.9046 3.09133V4.09133C8.49241 4.09133 4.93475 7.5863 4.93475 11.8742H3.93475ZM12.9046 20.657C7.9613 20.657 3.93475 16.7353 3.93475 11.8742H4.93475C4.93475 16.162 8.49241 19.657 12.9046 19.657V20.657ZM21.8745 11.8742C21.8745 16.7353 17.848 20.657 12.9046 20.657V19.657C17.3169 19.657 20.8745 16.162 20.8745 11.8742H21.8745ZM12.9046 3.09133C17.848 3.09133 21.8745 7.01308 21.8745 11.8742H20.8745C20.8745 7.5863 17.3169 4.09133 12.9046 4.09133V3.09133Z" fill="#00BDE7"/>
</svg>
