<svg width="26" height="26" viewBox="0 0 26 26" fill="none" xmlns="http://www.w3.org/2000/svg">
<path fill-rule="evenodd" clip-rule="evenodd" d="M11.2276 0.517571C12.1258 -0.172524 13.3757 -0.172523 14.2739 0.517571L24.1339 8.09326C24.9962 8.75573 25.5015 9.78132 25.5015 10.8687V23.0282C25.5015 24.409 24.3822 25.5282 23.0015 25.5282H17.501C16.1203 25.5282 15.001 24.409 15.001 23.0282V15.0831H10.5005V23.0282C10.5005 24.409 9.38123 25.5282 8.00051 25.5282H2.5C1.11929 25.5282 0 24.409 0 23.0282V10.8687C0 9.78132 0.505363 8.75573 1.36759 8.09326L11.2276 0.517571ZM12.7508 3.13054L3.19537 10.4722C3.07219 10.5668 3 10.7133 3 10.8687V22.5282H7.50051V14.5831C7.50051 13.2024 8.6198 12.0831 10.0005 12.0831H15.501C16.8817 12.0831 18.001 13.2024 18.001 14.5831V22.5282H22.5015V10.8687C22.5015 10.7133 22.4293 10.5668 22.3062 10.4722L12.7508 3.13054Z" fill="#FF4C00"/>
</svg>
