<svg width="27" height="27" viewBox="0 0 27 27" fill="none" xmlns="http://www.w3.org/2000/svg">
<path fill-rule="evenodd" clip-rule="evenodd" d="M13.5067 1C8.92224 1 5.20583 3.98577 5.20583 7.66889C5.20583 11.352 8.92224 14.3378 13.5067 14.3378C18.0911 14.3378 21.8075 11.352 21.8075 7.66889C21.8075 3.98577 18.0911 1 13.5067 1ZM13.5068 2.80957C16.8473 2.80957 19.5552 4.98517 19.5552 7.6689C19.5552 10.3526 16.8473 12.5282 13.5068 12.5282C10.1663 12.5282 7.45835 10.3526 7.45835 7.6689C7.45835 4.98517 10.1663 2.80957 13.5068 2.80957ZM10.1095 17.0262C8.89427 17.0937 7.66596 17.2324 6.45438 17.4402C4.1159 17.8255 2.24508 18.5954 1.44881 19.8749C1.14848 20.3753 0.997484 20.911 1.00003 21.4534C0.999131 21.9919 1.1489 22.5284 1.43847 23.0191C2.20304 24.2838 3.85595 24.9996 6.08788 25.3963L6.4877 25.4631C7.66639 25.6758 8.89508 25.819 10.132 25.8863C10.2373 25.911 10.4884 25.934 10.7625 25.9451L10.9879 25.9519C11.1038 25.9541 11.2353 25.9546 11.4313 25.9546C13.2091 26.0328 15.0522 26.0101 16.8868 25.8851C17.8644 25.8316 18.8486 25.7293 19.8246 25.5795L20.5548 25.4582C22.965 25.0778 24.7697 24.3545 25.5603 23.0205C26.1465 22.0302 26.1465 20.8809 25.5606 19.891C24.7719 18.5604 22.9902 17.8431 20.5365 17.4387C19.5739 17.2743 18.5957 17.1526 17.6104 17.0749L16.8902 17.0262C14.6343 16.867 12.3654 16.867 10.1095 17.0262ZM16.6931 18.8291L16.7129 18.8304C17.8436 18.8941 18.9674 19.021 20.0761 19.2104C21.8986 19.5107 23.1355 20.0087 23.5268 20.6688C23.8214 21.1666 23.8214 21.7451 23.5265 22.2433C23.1609 22.8602 22.05 23.3367 20.4445 23.628L20.093 23.6875C18.9625 23.8893 17.8424 24.0194 16.715 24.0812C14.9655 24.2002 13.2265 24.2217 11.4918 24.1467L10.8768 24.1382C10.7061 24.1313 10.5622 24.1181 10.4289 24.0967C9.37302 24.0329 8.42293 23.9321 7.50043 23.7858L6.94963 23.6925C5.12143 23.4058 3.87368 22.9057 3.46913 22.2366C3.32758 21.9966 3.25196 21.7257 3.25241 21.4515C3.25115 21.1789 3.32576 20.9141 3.47061 20.6727C3.86396 20.0409 5.18625 19.4967 6.91573 19.2117C8.03241 19.0203 9.15567 18.8934 10.2859 18.8304C12.4313 18.6792 14.5683 18.6792 16.6931 18.8291Z" fill="#33019F"/>
<path d="M6.45438 17.4402L6.53568 17.9335L6.53887 17.933L6.45438 17.4402ZM10.1095 17.0262L10.1372 17.5255L10.1447 17.5249L10.1095 17.0262ZM1.44881 19.8749L1.02425 19.6107L1.0201 19.6176L1.44881 19.8749ZM1.00003 21.4534L1.50004 21.4543L1.50003 21.4511L1.00003 21.4534ZM1.43847 23.0191L1.00781 23.2732L1.01058 23.2778L1.43847 23.0191ZM6.08788 25.3963L6.00037 25.8886L6.00555 25.8895L6.08788 25.3963ZM6.4877 25.4631L6.57652 24.971L6.57004 24.9699L6.4877 25.4631ZM10.132 25.8863L10.2461 25.3995L10.2032 25.3894L10.1591 25.387L10.132 25.8863ZM10.7625 25.9451L10.742 26.4448L10.7475 26.4449L10.7625 25.9451ZM10.9879 25.9519L10.9729 26.4517L10.9786 26.4518L10.9879 25.9519ZM11.4313 25.9546L11.4533 25.4551L11.4423 25.4546H11.4313V25.9546ZM16.8868 25.8851L16.8594 25.3858L16.8528 25.3863L16.8868 25.8851ZM19.8246 25.5795L19.9005 26.0737L19.9065 26.0727L19.8246 25.5795ZM20.5548 25.4582L20.4769 24.9643L20.4729 24.9649L20.5548 25.4582ZM25.5603 23.0205L25.9905 23.2755L25.9906 23.2752L25.5603 23.0205ZM25.5606 19.891L25.9909 19.6363L25.9907 19.636L25.5606 19.891ZM20.5365 17.4387L20.4524 17.9316L20.4552 17.932L20.5365 17.4387ZM17.6104 17.0749L17.6498 16.5765L17.6442 16.5761L17.6104 17.0749ZM16.8902 17.0262L16.855 17.5249L16.8564 17.525L16.8902 17.0262ZM16.7129 18.8304L16.6812 19.3294L16.6848 19.3296L16.7129 18.8304ZM16.6931 18.8291L16.6579 19.3279L16.6614 19.3281L16.6931 18.8291ZM20.0761 19.2104L19.9919 19.7032L19.9948 19.7037L20.0761 19.2104ZM23.5268 20.6688L23.957 20.4142L23.9569 20.4139L23.5268 20.6688ZM23.5265 22.2433L23.9566 22.4983L23.9568 22.498L23.5265 22.2433ZM20.4445 23.628L20.5281 24.121L20.5338 24.1199L20.4445 23.628ZM20.093 23.6875L20.0095 23.1945L20.0051 23.1953L20.093 23.6875ZM16.715 24.0812L16.6876 23.5819L16.681 23.5824L16.715 24.0812ZM11.4918 24.1467L11.5135 23.6471L11.5061 23.6468L11.4987 23.6467L11.4918 24.1467ZM10.8768 24.1382L10.8564 24.638L10.87 24.6382L10.8768 24.1382ZM10.4289 24.0967L10.5082 23.603L10.4837 23.5991L10.459 23.5976L10.4289 24.0967ZM7.50043 23.7858L7.41693 24.2788L7.42212 24.2796L7.50043 23.7858ZM6.94963 23.6925L7.03313 23.1995L7.02708 23.1985L6.94963 23.6925ZM3.46913 22.2366L3.03844 22.4906L3.04125 22.4953L3.46913 22.2366ZM3.25241 21.4515L3.75242 21.4524L3.75241 21.4492L3.25241 21.4515ZM3.47061 20.6727L3.04609 20.4084L3.04185 20.4155L3.47061 20.6727ZM6.91573 19.2117L6.99703 19.705L7.0002 19.7045L6.91573 19.2117ZM10.2859 18.8304L10.3136 19.3297L10.321 19.3292L10.2859 18.8304ZM5.70583 7.66889C5.70583 4.35853 9.09065 1.5 13.5067 1.5V0.5C8.75382 0.5 4.70583 3.613 4.70583 7.66889H5.70583ZM13.5067 13.8378C9.09065 13.8378 5.70583 10.9793 5.70583 7.66889H4.70583C4.70583 11.7248 8.75382 14.8378 13.5067 14.8378V13.8378ZM21.3075 7.66889C21.3075 10.9793 17.9227 13.8378 13.5067 13.8378V14.8378C18.2595 14.8378 22.3075 11.7248 22.3075 7.66889H21.3075ZM13.5067 1.5C17.9227 1.5 21.3075 4.35853 21.3075 7.66889H22.3075C22.3075 3.613 18.2595 0.5 13.5067 0.5V1.5ZM20.0552 7.6689C20.0552 4.6124 17.0157 2.30957 13.5068 2.30957V3.30957C16.6788 3.30957 19.0552 5.35793 19.0552 7.6689H20.0552ZM13.5068 13.0282C17.0157 13.0282 20.0552 10.7254 20.0552 7.6689H19.0552C19.0552 9.97986 16.6788 12.0282 13.5068 12.0282V13.0282ZM6.95835 7.6689C6.95835 10.7254 9.99792 13.0282 13.5068 13.0282V12.0282C10.3347 12.0282 7.95835 9.97987 7.95835 7.6689H6.95835ZM13.5068 2.30957C9.99792 2.30957 6.95835 4.6124 6.95835 7.6689H7.95835C7.95835 5.35793 10.3347 3.30957 13.5068 3.30957V2.30957ZM6.53887 17.933C7.73171 17.7285 8.94108 17.5918 10.1372 17.5254L10.0817 16.527C8.84747 16.5955 7.6002 16.7364 6.36989 16.9473L6.53887 17.933ZM1.87331 20.1391C2.20269 19.6098 2.77704 19.1517 3.58448 18.7754C4.38956 18.4002 5.3943 18.1216 6.53568 17.9335L6.37308 16.9468C5.17599 17.1441 4.07607 17.4431 3.16206 17.869C2.2504 18.2939 1.49121 18.8605 1.02431 19.6107L1.87331 20.1391ZM1.50003 21.4511C1.49794 21.0059 1.62118 20.5593 1.87752 20.1322L1.0201 19.6176C0.675779 20.1912 0.497033 20.8161 0.500037 21.4558L1.50003 21.4511ZM1.86909 22.765C1.62255 22.3472 1.49929 21.8982 1.50003 21.4543L0.500032 21.4526C0.498973 22.0856 0.675258 22.7095 1.00784 23.2732L1.86909 22.765ZM6.17539 24.904C3.96421 24.511 2.5104 23.8258 1.86635 22.7604L1.01058 23.2778C1.89568 24.7419 3.74768 25.4882 6.00038 25.8886L6.17539 24.904ZM6.57004 24.9699L6.17022 24.9031L6.00555 25.8895L6.40537 25.9562L6.57004 24.9699ZM10.1591 25.387C8.94242 25.3209 7.73435 25.18 6.57652 24.971L6.39889 25.9551C7.59843 26.1716 8.84773 26.3172 10.1048 26.3855L10.1591 25.387ZM10.7829 25.4456C10.5052 25.4342 10.299 25.4119 10.2461 25.3995L10.0179 26.3731C10.1757 26.4101 10.4717 26.4337 10.742 26.4447L10.7829 25.4456ZM11.0028 25.4521L10.7774 25.4454L10.7475 26.4449L10.9729 26.4517L11.0028 25.4521ZM11.4313 25.4546C11.2355 25.4546 11.108 25.454 10.9971 25.452L10.9786 26.4518C11.0995 26.4541 11.2351 26.4546 11.4313 26.4546V25.4546ZM16.8528 25.3863C15.0365 25.51 13.2121 25.5325 11.4533 25.4551L11.4093 26.4541C13.2062 26.5332 15.068 26.5101 16.9207 26.384L16.8528 25.3863ZM19.7487 25.0853C18.7887 25.2327 17.8207 25.3332 16.8594 25.3859L16.9141 26.3844C17.9081 26.33 18.9085 26.226 19.9005 26.0737L19.7487 25.0853ZM20.4729 24.9649L19.7427 25.0862L19.9065 26.0727L20.6367 25.9514L20.4729 24.9649ZM25.1302 22.7656C24.4655 23.887 22.8771 24.5855 20.4769 24.9643L20.6328 25.9521C23.0528 25.5701 25.0738 24.822 25.9905 23.2755L25.1302 22.7656ZM25.1303 20.1456C25.6232 20.9785 25.6233 21.9325 25.13 22.7659L25.9906 23.2752C26.6697 22.1278 26.6698 20.7833 25.9909 19.6363L25.1303 20.1456ZM20.4552 17.932C22.9022 18.3353 24.4675 19.0274 25.1305 20.1459L25.9907 19.636C25.0764 18.0934 23.0782 17.3508 20.6178 16.9453L20.4552 17.932ZM17.5711 17.5734C18.5415 17.6499 19.5047 17.7697 20.4524 17.9316L20.6207 16.9458C19.643 16.7788 18.6498 16.6553 17.6498 16.5765L17.5711 17.5734ZM16.8564 17.525L17.5767 17.5738L17.6442 16.5761L16.9239 16.5273L16.8564 17.525ZM10.1447 17.5249C12.3771 17.3674 14.6225 17.3674 16.855 17.5249L16.9254 16.5274C14.646 16.3666 12.3536 16.3666 10.0743 16.5274L10.1447 17.5249ZM16.7446 18.3314L16.7248 18.3301L16.6614 19.3281L16.6812 19.3294L16.7446 18.3314ZM20.1602 18.7175C19.0329 18.525 17.8904 18.3959 16.741 18.3312L16.6848 19.3296C17.7968 19.3922 18.9019 19.5171 19.9919 19.7032L20.1602 18.7175ZM23.9569 20.4139C23.6786 19.9445 23.1502 19.6018 22.5307 19.3433C21.8963 19.0785 21.0902 18.8708 20.1574 18.717L19.9948 19.7037C20.8845 19.8503 21.6081 20.0418 22.1455 20.2661C22.698 20.4967 22.9836 20.733 23.0966 20.9238L23.9569 20.4139ZM23.9568 22.498C24.3446 21.8428 24.3447 21.0691 23.957 20.4142L23.0965 20.9235C23.2981 21.2642 23.2982 21.6474 23.0962 21.9886L23.9568 22.498ZM20.5338 24.1199C21.3598 23.9701 22.0806 23.769 22.6533 23.5147C23.2136 23.266 23.6955 22.9388 23.9566 22.4983L23.0964 21.9884C22.9918 22.1647 22.7355 22.3842 22.2476 22.6008C21.7721 22.8118 21.1348 22.9946 20.3553 23.136L20.5338 24.1199ZM20.1765 24.1805L20.528 24.121L20.361 23.135L20.0095 23.1946L20.1765 24.1805ZM16.7423 24.5805C17.8902 24.5175 19.0305 24.3851 20.1809 24.1798L20.0051 23.1953C18.8945 23.3936 17.7946 23.5213 16.6876 23.582L16.7423 24.5805ZM11.4702 24.6462C13.2235 24.7221 14.9811 24.7003 16.7489 24.5801L16.681 23.5824C14.95 23.7001 13.2295 23.7214 11.5135 23.6471L11.4702 24.6462ZM10.87 24.6382L11.485 24.6466L11.4987 23.6467L10.8837 23.6383L10.87 24.6382ZM10.3496 24.5903C10.5072 24.6157 10.6715 24.6303 10.8564 24.6378L10.8972 23.6387C10.7407 23.6323 10.6172 23.6205 10.5082 23.603L10.3496 24.5903ZM7.42212 24.2796C8.36251 24.4287 9.32883 24.5312 10.3987 24.5958L10.459 23.5976C9.41722 23.5347 8.48335 23.4354 7.57875 23.2919L7.42212 24.2796ZM6.86613 24.1854L7.41694 24.2787L7.58393 23.2928L7.03312 23.1995L6.86613 24.1854ZM3.04125 22.4953C3.32597 22.9662 3.8582 23.3109 4.48438 23.57C5.1246 23.8348 5.93547 24.0396 6.87217 24.1864L7.02708 23.1985C6.13559 23.0587 5.40849 22.8701 4.86665 22.6459C4.31077 22.416 4.01684 22.1761 3.89701 21.9779L3.04125 22.4953ZM2.75241 21.4507C2.75181 21.8176 2.85296 22.1761 3.03846 22.4906L3.8998 21.9826C3.80219 21.8171 3.75211 21.6339 3.75241 21.4524L2.75241 21.4507ZM3.04185 20.4155C2.85203 20.7319 2.75071 21.0859 2.75242 21.4539L3.75241 21.4492C3.75158 21.2719 3.7995 21.0964 3.89937 20.9299L3.04185 20.4155ZM6.83442 18.7183C5.94279 18.8653 5.13985 19.0814 4.49827 19.3512C3.87781 19.6122 3.32749 19.9565 3.04615 20.4084L3.89507 20.937C4.00708 20.757 4.31458 20.5134 4.88598 20.273C5.43624 20.0416 6.15919 19.8431 6.99703 19.705L6.83442 18.7183ZM10.2581 18.3312C9.10893 18.3952 7.96675 18.5242 6.83125 18.7189L7.0002 19.7045C8.09808 19.5163 9.2024 19.3915 10.3136 19.3297L10.2581 18.3312ZM16.7283 18.3304C14.58 18.1788 12.4195 18.1788 10.2507 18.3317L10.321 19.3292C12.4432 19.1796 14.5567 19.1796 16.6579 19.3279L16.7283 18.3304Z" fill="#33019F"/>
</svg>
