<svg width="25" height="25" viewBox="0 0 25 25" fill="none" xmlns="http://www.w3.org/2000/svg">
<path d="M19.7917 7.29183H16.6667V6.25016C16.6667 5.14509 16.2277 4.08529 15.4463 3.30388C14.6649 2.52248 13.6051 2.0835 12.5 2.0835C11.3949 2.0835 10.3351 2.52248 9.55373 3.30388C8.77232 4.08529 8.33334 5.14509 8.33334 6.25016V7.29183H5.20834C4.93207 7.29183 4.66712 7.40158 4.47177 7.59693C4.27642 7.79228 4.16667 8.05723 4.16667 8.3335V19.7918C4.16667 20.6206 4.49591 21.4155 5.08196 22.0015C5.66801 22.5876 6.46287 22.9168 7.29167 22.9168H17.7083C18.5371 22.9168 19.332 22.5876 19.918 22.0015C20.5041 21.4155 20.8333 20.6206 20.8333 19.7918V8.3335C20.8333 8.05723 20.7236 7.79228 20.5282 7.59693C20.3329 7.40158 20.0679 7.29183 19.7917 7.29183ZM10.4167 6.25016C10.4167 5.69763 10.6362 5.16772 11.0269 4.77702C11.4176 4.38632 11.9475 4.16683 12.5 4.16683C13.0525 4.16683 13.5824 4.38632 13.9731 4.77702C14.3638 5.16772 14.5833 5.69763 14.5833 6.25016V7.29183H10.4167V6.25016ZM18.75 19.7918C18.75 20.0681 18.6403 20.3331 18.4449 20.5284C18.2496 20.7238 17.9846 20.8335 17.7083 20.8335H7.29167C7.0154 20.8335 6.75045 20.7238 6.5551 20.5284C6.35975 20.3331 6.25 20.0681 6.25 19.7918V9.37516H8.33334V10.4168C8.33334 10.6931 8.44308 10.958 8.63843 11.1534C8.83379 11.3488 9.09874 11.4585 9.375 11.4585C9.65127 11.4585 9.91622 11.3488 10.1116 11.1534C10.3069 10.958 10.4167 10.6931 10.4167 10.4168V9.37516H14.5833V10.4168C14.5833 10.6931 14.6931 10.958 14.8884 11.1534C15.0838 11.3488 15.3487 11.4585 15.625 11.4585C15.9013 11.4585 16.1662 11.3488 16.3616 11.1534C16.5569 10.958 16.6667 10.6931 16.6667 10.4168V9.37516H18.75V19.7918Z" fill="#9E00FF" stroke="#9E00FF" stroke-width="0.5"/>
</svg>
